Coordinates
version=1
nRows=65
nColumns=12
inDegrees=yes

Units are S.I. units (second, meters, Newtons, ...)
Angles are in degrees

endheader
time	SC_y	SC_z	SC_x	AC_y	AC_z	AC_x	GH_y	GH_z	GH_yy	EL_x	PS_y
       0.0              -57.15          32.19          3.119           68.1        -0.1927          8.625          52.27           65.4          147.3          109.5          116.1
   0.04149              -57.15          32.19          3.127           68.1        -0.1929          8.623          52.26          65.39          147.3          109.5          116.1
   0.08298              -57.14          32.19          3.135           68.1         -0.193           8.62          52.25          65.38          147.3          109.5          116.0
    0.1245              -57.13          32.19          3.143          68.09        -0.1932          8.618          52.24          65.37          147.2          109.5          116.0
     0.166              -57.12          32.19          3.152          68.09        -0.1934          8.615          52.22          65.36          147.2          109.5          116.0
    0.2074              -57.11          32.19          3.162          68.09        -0.1936          8.612          52.21          65.35          147.2          109.5          116.0
    0.2489              -57.11          32.19          3.172          68.09        -0.1938          8.609           52.2          65.34          147.2          109.5          116.0
    0.2904               -57.1          32.19          3.183          68.09        -0.1941          8.606          52.18          65.32          147.1          109.5          116.0
    0.3319              -57.09          32.19          3.195          68.08        -0.1943          8.603          52.17          65.31          147.1          109.5          116.0
    0.3734              -57.07          32.18          3.208          68.08        -0.1946          8.599          52.15          65.29          147.0          109.5          115.9
    0.4149              -57.06          32.18          3.222          68.08        -0.1949          8.595          52.13          65.27          147.0          109.5          115.9
    0.4564              -57.05          32.18          3.236          68.07        -0.1952          8.591          52.11          65.26          147.0          109.5          115.9
    0.4979              -57.04          32.18          3.252          68.07        -0.1955          8.586          52.09          65.24          146.9          109.5          115.9
    0.5393              -57.02          32.18          3.269          68.07        -0.1958          8.581          52.07          65.21          146.8          109.5          115.9
    0.5808              -57.01          32.18          3.288          68.06        -0.1962          8.576          52.04          65.19          146.8          109.6          115.8
    0.6223              -56.99          32.18          3.308          68.06        -0.1966           8.57          52.02          65.17          146.7          109.6          115.8
    0.6638              -56.97          32.18           3.33          68.06        -0.1971          8.564          51.99          65.14          146.7          109.6          115.8
    0.7053              -56.95          32.17          3.353          68.05        -0.1976          8.557          51.96          65.11          146.6          109.6          115.8
    0.7468              -56.93          32.17          3.379          68.05        -0.1981           8.55          51.92          65.08          146.5          109.6          115.7
    0.7883               -56.9          32.17          3.408          68.04        -0.1987          8.541          51.89          65.04          146.4          109.6          115.7
    0.8298              -56.88          32.17          3.439          68.03        -0.1994          8.532          51.84           65.0          146.3          109.6          115.6
    0.8712              -56.85          32.17          3.473          68.03        -0.2001          8.522           51.8          64.96          146.2          109.7          115.6
    0.9127              -56.81          32.16          3.511          68.02        -0.2009          8.511          51.75          64.91          146.1          109.7          115.5
    0.9542              -56.78          32.16          3.553          68.01        -0.2017          8.499          51.69          64.86          145.9          109.7          115.5
    0.9957              -56.74          32.16            3.6           68.0        -0.2027          8.486          51.63           64.8          145.8          109.7          115.4
     1.037              -56.69          32.15          3.652          67.99        -0.2038          8.471          51.56          64.73          145.6          109.8          115.4
     1.079              -56.64          32.15          3.711          67.98         -0.205          8.454          51.48          64.66          145.4          109.8          115.3
      1.12              -56.58          32.15          3.776          67.97        -0.2064          8.435           51.4          64.58          145.2          109.8          115.2
     1.162              -56.52          32.14          3.851          67.95        -0.2079          8.413           51.3          64.49          145.0          109.9          115.1
     1.203              -56.45          32.14          3.935          67.93        -0.2097          8.389          51.19          64.38          144.7          109.9          115.0
     1.245              -56.36          32.13          4.031          67.91        -0.2117          8.361          51.06          64.26          144.4          110.0          114.9
     1.286              -56.27          32.12          4.142          67.89        -0.2139          8.329          50.91          64.12          144.1          110.1          114.7
     1.328              -56.16          32.11          4.269          67.87        -0.2166          8.292          50.74          63.96          143.7          110.1          114.5
     1.369              -56.03           32.1          4.417          67.84        -0.2197          8.249          50.55          63.78          143.2          110.2          114.3
     1.411              -55.88          32.09          4.591           67.8        -0.2233          8.199          50.32          63.56          142.7          110.3          114.1
     1.452               -55.7          32.08          4.795          67.76        -0.2275           8.14          50.05          63.31          142.0          110.4          113.9
     1.494              -55.49          32.06          5.038          67.71        -0.2326           8.07          49.73           63.0          141.2          110.6          113.5
     1.535              -55.24          32.04          5.329          67.65        -0.2386          7.986          49.34          62.64          140.3          110.8          113.1
     1.577              -54.94          32.02          5.681          67.58        -0.2459          7.884          48.87           62.2          139.2          111.0          112.7
     1.618              -54.57          31.99          6.111           67.5        -0.2548          7.759          48.31          61.66          137.8          111.2          112.1
      1.66              -54.11          31.95          6.642          67.39        -0.2659          7.606           47.6          60.99          136.1          111.5          111.4
     1.701              -53.54          31.91          7.304          67.26        -0.2796          7.414          46.73          60.17          134.0          111.9          110.5
     1.742              -52.82          31.85          8.138          67.09        -0.2969          7.173          45.62          59.12          131.4          112.4          109.4
     1.784               -51.9          31.78          9.199          66.87        -0.3189          6.866          44.22           57.8          128.0          113.0          108.0
     1.825              -50.73          31.69          10.56           66.6        -0.3471          6.474          42.42           56.1          123.7          113.8          106.2
     1.867              -49.23          31.57           12.3          66.25        -0.3832           5.97          40.11          53.92          118.2          114.9          103.9
     1.908               -47.3          31.42          14.52           65.8        -0.4294          5.327          37.17          51.14          111.1          116.2          101.0
      1.95              -44.89          31.23          17.32          65.24        -0.4875          4.517          33.46          47.64          102.2          117.8          97.29
     1.991              -41.94          30.99          20.73          64.55        -0.5582          3.531          28.95          43.38          91.39          119.8          92.78
     2.033              -38.53          30.73          24.68          63.76        -0.6402          2.389          23.72          38.43          78.84          122.1          87.56
     2.074              -34.84          30.44          28.96           62.9         -0.729          1.151          18.05          33.08          65.25          124.7           81.9
     2.116              -31.14          30.15          33.24          62.03        -0.8178       -0.08647          12.39          27.73          51.66          127.2          76.25
     2.157              -27.73          29.88          37.19          61.24        -0.8998         -1.229          7.154          22.79          39.11          129.5          71.02
     2.199              -24.79          29.65           40.6          60.55        -0.9706         -2.215           2.64          18.52          28.28          131.5          66.51
      2.24              -22.37          29.46          43.39          59.99         -1.029         -3.024         -1.065          15.03           19.4          133.2          62.82
     2.282              -20.45           29.3          45.62          59.54         -1.075         -3.668          -4.01          12.24          12.33          134.5          59.87
     2.323              -18.95          29.19          47.36          59.19         -1.111         -4.172         -6.317          10.07          6.802          135.5          57.57
     2.365              -17.77          29.09          48.72          58.92         -1.139         -4.564         -8.114          8.368          2.491          136.3          55.78
     2.406              -16.86          29.02          49.78           58.7         -1.161         -4.871         -9.518          7.041        -0.8771          136.9          54.37
     2.448              -16.14          28.96          50.61          58.53         -1.178         -5.112         -10.62          5.998         -3.526          137.4          53.27
     2.489              -15.57          28.92          51.27           58.4         -1.192         -5.304          -11.5           5.17          -5.63          137.8           52.4
     2.531              -15.11          28.88           51.8          58.29         -1.203         -5.457          -12.2          4.506         -7.316          138.1          51.69
     2.572              -14.74          28.85          52.23          58.21         -1.212         -5.582         -12.77          3.968         -8.683          138.4          51.13
     2.614              -14.43          28.83          52.59          58.14         -1.219         -5.684         -13.24          3.527         -9.801          138.6          50.66
     2.655              -14.18          28.81          52.88          58.08         -1.226         -5.768         -13.62          3.163         -10.73          138.7          50.27
